<?xml version="1.0" encoding="UTF-8"?>
<svg xmlns="http://www.w3.org/2000/svg" version="1.1" width="200" height="200" viewBox="0 0 200 200"><rect x="0" y="0" width="200" height="200" fill="#ffffff"/><g transform="scale(6.061)"><g transform="translate(0,0)"><path fill-rule="evenodd" d="M9 0L9 1L8 1L8 2L9 2L9 3L8 3L8 4L10 4L10 7L11 7L11 4L12 4L12 5L13 5L13 6L12 6L12 9L13 9L13 8L14 8L14 9L18 9L18 10L15 10L15 11L14 11L14 12L15 12L15 13L12 13L12 11L13 11L13 10L11 10L11 11L10 11L10 9L11 9L11 8L6 8L6 9L7 9L7 10L5 10L5 8L0 8L0 10L1 10L1 12L0 12L0 15L1 15L1 18L4 18L4 19L5 19L5 20L4 20L4 21L3 21L3 20L2 20L2 19L0 19L0 25L1 25L1 22L4 22L4 23L2 23L2 24L3 24L3 25L5 25L5 24L6 24L6 25L8 25L8 27L9 27L9 28L8 28L8 33L9 33L9 30L10 30L10 31L11 31L11 30L10 30L10 28L11 28L11 29L12 29L12 30L13 30L13 31L12 31L12 33L13 33L13 32L14 32L14 33L18 33L18 32L20 32L20 33L21 33L21 32L22 32L22 33L23 33L23 32L24 32L24 33L26 33L26 32L27 32L27 33L30 33L30 32L31 32L31 33L32 33L32 32L31 32L31 30L33 30L33 27L32 27L32 26L33 26L33 24L32 24L32 26L31 26L31 25L30 25L30 24L31 24L31 23L32 23L32 22L33 22L33 21L32 21L32 20L31 20L31 19L32 19L32 18L33 18L33 17L32 17L32 16L31 16L31 15L32 15L32 14L33 14L33 13L31 13L31 15L30 15L30 16L31 16L31 19L30 19L30 17L29 17L29 16L28 16L28 15L27 15L27 14L28 14L28 13L30 13L30 12L31 12L31 11L32 11L32 10L33 10L33 9L32 9L32 8L31 8L31 9L30 9L30 8L29 8L29 9L30 9L30 10L29 10L29 11L26 11L26 10L28 10L28 8L27 8L27 9L26 9L26 8L25 8L25 4L23 4L23 3L22 3L22 2L23 2L23 1L24 1L24 3L25 3L25 0L23 0L23 1L22 1L22 2L21 2L21 0L19 0L19 1L18 1L18 2L19 2L19 5L16 5L16 4L12 4L12 2L13 2L13 1L11 1L11 2L10 2L10 0ZM15 0L15 1L17 1L17 0ZM19 1L19 2L20 2L20 1ZM14 2L14 3L15 3L15 2ZM16 2L16 3L17 3L17 4L18 4L18 3L17 3L17 2ZM10 3L10 4L11 4L11 3ZM20 3L20 5L19 5L19 8L18 8L18 6L17 6L17 7L16 7L16 6L15 6L15 7L14 7L14 6L13 6L13 7L14 7L14 8L18 8L18 9L20 9L20 8L21 8L21 9L22 9L22 10L19 10L19 11L16 11L16 12L18 12L18 13L20 13L20 12L21 12L21 13L22 13L22 12L21 12L21 11L22 11L22 10L23 10L23 13L25 13L25 14L21 14L21 15L20 15L20 14L18 14L18 15L17 15L17 16L16 16L16 15L14 15L14 16L13 16L13 17L12 17L12 15L13 15L13 14L12 14L12 13L11 13L11 12L10 12L10 13L11 13L11 15L10 15L10 14L9 14L9 12L8 12L8 11L9 11L9 9L8 9L8 11L6 11L6 12L7 12L7 13L6 13L6 14L4 14L4 13L5 13L5 12L4 12L4 13L1 13L1 14L2 14L2 15L4 15L4 16L5 16L5 17L4 17L4 18L5 18L5 19L6 19L6 20L8 20L8 19L11 19L11 18L13 18L13 19L12 19L12 21L11 21L11 23L10 23L10 22L9 22L9 21L10 21L10 20L9 20L9 21L5 21L5 23L6 23L6 24L7 24L7 23L8 23L8 25L9 25L9 27L11 27L11 26L13 26L13 27L12 27L12 29L15 29L15 30L16 30L16 29L17 29L17 28L19 28L19 29L22 29L22 30L18 30L18 31L14 31L14 32L18 32L18 31L20 31L20 32L21 32L21 31L22 31L22 32L23 32L23 31L24 31L24 32L25 32L25 31L26 31L26 30L27 30L27 32L30 32L30 31L29 31L29 30L30 30L30 29L32 29L32 27L31 27L31 28L30 28L30 25L29 25L29 28L30 28L30 29L29 29L29 30L27 30L27 29L25 29L25 31L24 31L24 30L23 30L23 29L24 29L24 27L23 27L23 29L22 29L22 28L20 28L20 26L19 26L19 25L21 25L21 26L23 26L23 25L24 25L24 24L25 24L25 22L23 22L23 21L27 21L27 20L28 20L28 19L29 19L29 21L28 21L28 23L27 23L27 22L26 22L26 23L27 23L27 24L30 24L30 23L31 23L31 20L30 20L30 19L29 19L29 17L28 17L28 16L27 16L27 15L26 15L26 16L25 16L25 14L26 14L26 13L28 13L28 12L24 12L24 11L25 11L25 10L23 10L23 9L22 9L22 8L24 8L24 9L25 9L25 8L24 8L24 5L23 5L23 4L22 4L22 3ZM8 5L8 7L9 7L9 5ZM22 5L22 7L21 7L21 6L20 6L20 7L21 7L21 8L22 8L22 7L23 7L23 5ZM1 9L1 10L2 10L2 12L3 12L3 11L4 11L4 9ZM30 10L30 11L29 11L29 12L30 12L30 11L31 11L31 10ZM15 13L15 14L17 14L17 13ZM6 14L6 15L7 15L7 14ZM8 14L8 18L6 18L6 17L7 17L7 16L6 16L6 17L5 17L5 18L6 18L6 19L8 19L8 18L9 18L9 17L10 17L10 18L11 18L11 17L10 17L10 15L9 15L9 14ZM21 15L21 16L22 16L22 17L23 17L23 18L22 18L22 19L18 19L18 20L17 20L17 19L16 19L16 18L15 18L15 19L14 19L14 20L15 20L15 19L16 19L16 20L17 20L17 21L16 21L16 22L15 22L15 21L12 21L12 22L13 22L13 23L12 23L12 25L13 25L13 24L14 24L14 25L16 25L16 26L15 26L15 27L14 27L14 28L15 28L15 29L16 29L16 28L15 28L15 27L19 27L19 26L17 26L17 25L18 25L18 24L17 24L17 25L16 25L16 23L17 23L17 21L18 21L18 22L20 22L20 24L23 24L23 23L21 23L21 22L20 22L20 20L22 20L22 21L23 21L23 18L25 18L25 19L24 19L24 20L26 20L26 18L28 18L28 17L25 17L25 16L22 16L22 15ZM14 16L14 17L15 17L15 16ZM17 16L17 17L18 17L18 18L21 18L21 17L18 17L18 16ZM18 20L18 21L19 21L19 20ZM29 21L29 23L30 23L30 21ZM6 22L6 23L7 23L7 22ZM14 23L14 24L15 24L15 23ZM9 24L9 25L10 25L10 26L11 26L11 24ZM25 25L25 28L28 28L28 25ZM26 26L26 27L27 27L27 26ZM22 30L22 31L23 31L23 30ZM10 32L10 33L11 33L11 32ZM0 0L0 7L7 7L7 0ZM1 1L1 6L6 6L6 1ZM2 2L2 5L5 5L5 2ZM26 0L26 7L33 7L33 0ZM27 1L27 6L32 6L32 1ZM28 2L28 5L31 5L31 2ZM0 26L0 33L7 33L7 26ZM1 27L1 32L6 32L6 27ZM2 28L2 31L5 31L5 28Z" fill="#000000"/></g></g></svg>
