<?xml version="1.0" encoding="UTF-8"?>
<svg xmlns="http://www.w3.org/2000/svg" version="1.1" width="200" height="200" viewBox="0 0 200 200"><rect x="0" y="0" width="200" height="200" fill="#ffffff"/><g transform="scale(8)"><g transform="translate(0,0)"><path fill-rule="evenodd" d="M8 0L8 4L9 4L9 5L8 5L8 7L9 7L9 6L10 6L10 9L11 9L11 8L12 8L12 9L13 9L13 10L15 10L15 11L14 11L14 12L13 12L13 11L12 11L12 12L11 12L11 13L9 13L9 15L8 15L8 16L6 16L6 15L7 15L7 14L8 14L8 13L7 13L7 12L8 12L8 11L7 11L7 10L9 10L9 12L10 12L10 11L11 11L11 10L9 10L9 9L7 9L7 8L4 8L4 9L3 9L3 10L1 10L1 11L3 11L3 12L0 12L0 14L3 14L3 15L2 15L2 16L0 16L0 17L2 17L2 16L3 16L3 17L4 17L4 15L5 15L5 16L6 16L6 17L8 17L8 18L9 18L9 19L8 19L8 21L9 21L9 20L10 20L10 19L11 19L11 16L12 16L12 17L13 17L13 18L15 18L15 17L14 17L14 15L15 15L15 16L16 16L16 21L17 21L17 22L16 22L16 23L19 23L19 24L22 24L22 25L25 25L25 24L24 24L24 22L25 22L25 19L21 19L21 17L23 17L23 16L24 16L24 15L23 15L23 14L24 14L24 13L25 13L25 12L24 12L24 11L23 11L23 10L24 10L24 9L25 9L25 8L21 8L21 9L20 9L20 8L19 8L19 9L20 9L20 10L21 10L21 11L22 11L22 12L21 12L21 13L20 13L20 14L19 14L19 16L17 16L17 15L18 15L18 14L17 14L17 13L19 13L19 12L18 12L18 11L17 11L17 10L16 10L16 8L15 8L15 9L14 9L14 7L15 7L15 6L14 6L14 7L13 7L13 6L12 6L12 7L11 7L11 3L10 3L10 2L9 2L9 0ZM15 0L15 1L14 1L14 2L15 2L15 4L14 4L14 5L17 5L17 4L16 4L16 2L17 2L17 0ZM11 1L11 2L12 2L12 5L13 5L13 1ZM15 1L15 2L16 2L16 1ZM16 6L16 7L17 7L17 6ZM12 7L12 8L13 8L13 7ZM0 8L0 9L2 9L2 8ZM5 9L5 13L6 13L6 14L5 14L5 15L6 15L6 14L7 14L7 13L6 13L6 12L7 12L7 11L6 11L6 10L7 10L7 9ZM22 9L22 10L23 10L23 9ZM3 10L3 11L4 11L4 10ZM15 11L15 13L13 13L13 12L12 12L12 13L11 13L11 14L10 14L10 15L9 15L9 17L10 17L10 16L11 16L11 14L12 14L12 13L13 13L13 14L15 14L15 13L16 13L16 11ZM21 13L21 14L23 14L23 13ZM16 14L16 15L17 15L17 14ZM12 15L12 16L13 16L13 15ZM21 15L21 16L22 16L22 15ZM17 17L17 20L20 20L20 17ZM18 18L18 19L19 19L19 18ZM12 19L12 20L11 20L11 21L12 21L12 22L9 22L9 23L8 23L8 25L9 25L9 24L10 24L10 25L11 25L11 24L12 24L12 25L14 25L14 23L15 23L15 22L13 22L13 21L15 21L15 19L14 19L14 20L13 20L13 19ZM12 20L12 21L13 21L13 20ZM23 20L23 21L24 21L24 20ZM20 21L20 22L19 22L19 23L21 23L21 22L22 22L22 23L23 23L23 22L22 22L22 21ZM10 23L10 24L11 24L11 23ZM12 23L12 24L13 24L13 23ZM15 24L15 25L16 25L16 24ZM0 0L0 7L7 7L7 0ZM1 1L1 6L6 6L6 1ZM2 2L2 5L5 5L5 2ZM18 0L18 7L25 7L25 0ZM19 1L19 6L24 6L24 1ZM20 2L20 5L23 5L23 2ZM0 18L0 25L7 25L7 18ZM1 19L1 24L6 24L6 19ZM2 20L2 23L5 23L5 20Z" fill="#000000"/></g></g></svg>
